<svg xmlns="http://www.w3.org/2000/svg" xmlns:xlink="http://www.w3.org/1999/xlink" viewBox="0 0 157 16"><defs><style>.cls-1{fill:none;}.cls-2{clip-path:url(#clip-path);}.cls-3{fill:#2b2b2b;}.cls-4{clip-path:url(#clip-path-2);}.cls-5{clip-path:url(#clip-path-3);}.cls-6{clip-path:url(#clip-path-4);}</style><clipPath id="clip-path"><rect class="cls-1" width="22.9" height="16"/></clipPath><clipPath id="clip-path-2"><rect class="cls-1" x="53" width="19.7" height="16"/></clipPath><clipPath id="clip-path-3"><rect class="cls-1" x="103" width="8.3" height="16"/></clipPath><clipPath id="clip-path-4"><rect class="cls-1" x="142" width="16" height="16"/></clipPath></defs><title>Asset 300</title><g id="Layer_2" data-name="Layer 2"><g id="Layer_5" data-name="Layer 5"><g class="cls-2"><g id="Youtube"><path id="Path_25" data-name="Path 25" class="cls-3" d="M22.4,2.5a2.9,2.9,0,0,0-2-2c-1.8-.5-9-.5-9-.5S4.3,0,2.5.5a2.6,2.6,0,0,0-2,2A34.1,34.1,0,0,0,0,8a25.6,25.6,0,0,0,.5,5.5,2.7,2.7,0,0,0,2,2c1.8.5,8.9.5,8.9.5s7.2,0,9-.5a2.9,2.9,0,0,0,2-2A33.1,33.1,0,0,0,22.9,8,34.1,34.1,0,0,0,22.4,2.5ZM9.1,11.4V4.6L15.1,8Z"/></g></g><g class="cls-4"><g id="Twitter"><path id="Path_26" data-name="Path 26" class="cls-3" d="M70.7,4v.5A11.4,11.4,0,0,1,59.4,16h-.2A11.2,11.2,0,0,1,53,14.2h1a7.6,7.6,0,0,0,5-1.7,4,4,0,0,1-3.8-2.8H56l1-.2a4,4,0,0,1-3.2-3.9h0a4.1,4.1,0,0,0,1.8.5A4,4,0,0,1,54.4.7,11.4,11.4,0,0,0,62.7,5a3.1,3.1,0,0,1-.1-1,4,4,0,0,1,4-4,4.2,4.2,0,0,1,3,1.3,8.2,8.2,0,0,0,2.6-1,4.9,4.9,0,0,1-1.8,2.2,8.6,8.6,0,0,0,2.3-.6,10,10,0,0,1-2,2.1Z"/></g></g><g class="cls-5"><g id="Facebook"><path id="Path_27" data-name="Path 27" class="cls-3" d="M108.4,16V8.7h2.5l.3-2.8h-2.8V4.1c0-.9.2-1.4,1.4-1.4h1.5V.1h-2.2a3.5,3.5,0,0,0-3.7,3.2V5.9H103V8.7h2.4V16Z"/></g></g><g class="cls-6"><g id="Instagram"><path id="Exclusion_2" data-name="Exclusion 2" class="cls-3" d="M154,15h-8a2.9,2.9,0,0,1-3-3V4a3,3,0,0,1,3-3h8a3,3,0,0,1,3,3v8A2.9,2.9,0,0,1,154,15ZM150,4.6a3.4,3.4,0,1,0,0,6.7,3.4,3.4,0,0,0,0-6.7Zm4.2-1.9A1.1,1.1,0,0,0,153,3.8,1.2,1.2,0,0,0,154.2,5a1.1,1.1,0,0,0,1.1-1.2h0a1.1,1.1,0,0,0-1.1-1.1ZM150,10.2A2.2,2.2,0,1,1,152.2,8,2.2,2.2,0,0,1,150,10.2Z"/><g id="bxl-instagram"><path id="Path_29" data-name="Path 29" class="cls-3" d="M156.6,2.6A4,4,0,0,0,154.4.4a5.7,5.7,0,0,0-1.8-.3h-6.2a5.7,5.7,0,0,0-1.8.3,4,4,0,0,0-2.2,2.2,5.7,5.7,0,0,0-.3,1.8,21.2,21.2,0,0,0-.1,3.1v3.1a11.6,11.6,0,0,0,.4,1.8,4,4,0,0,0,2.2,2.2l1.8.4h6.2a5.8,5.8,0,0,0,1.8-.4,4,4,0,0,0,2.2-2.2,5.7,5.7,0,0,0,.3-1.8,20.4,20.4,0,0,0,.1-3.1,21.2,21.2,0,0,0-.1-3.1A5.7,5.7,0,0,0,156.6,2.6Zm-1,7.9a3.2,3.2,0,0,1-.3,1.4,2.2,2.2,0,0,1-1.4,1.4,3.5,3.5,0,0,1-1.4.3h-6.1a3.5,3.5,0,0,1-1.4-.3,2.4,2.4,0,0,1-1.4-1.4,3.2,3.2,0,0,1-.3-1.4v-6a3.2,3.2,0,0,1,.3-1.4A2.9,2.9,0,0,1,145,1.6l1.4-.2h6.1l1.4.2a2.6,2.6,0,0,1,1.4,1.5,3.1,3.1,0,0,1,.3,1.3v6.1Z"/></g></g></g></g></g></svg>